<svg width="54" height="48" viewBox="0 0 54 48" fill="none" xmlns="http://www.w3.org/2000/svg">
<path d="M49.375 41C49.375 43.7613 47.1362 46 44.375 46H9.375C6.61375 46 4.375 43.7613 4.375 41V6C4.375 3.23875 6.61375 1 9.375 1H44.375C47.1362 1 49.375 3.23875 49.375 6V41Z" fill="white"/>
<path d="M20.3656 12.4452C20.3656 10.5077 21.6056 9.42274 23.2719 9.42274C24.9381 9.42274 26.1781 10.5077 26.1781 12.4452V31.9002H33.0781C35.0531 31.9002 35.9069 33.374 35.8694 34.6915C35.7906 35.9702 34.7831 37.2502 33.0781 37.2502H23.3881C21.4894 37.2502 20.3656 36.0102 20.3656 34.0715V12.4452Z" fill="#483972"/>
</svg>
